<mxfile host="Electron" modified="2021-03-29T13:25:52.916Z" agent="5.0 (Windows NT 10.0; Win64; x64) AppleWebKit/537.36 (KHTML, like Gecko) draw.io/14.1.8 Chrome/87.0.4280.88 Electron/11.1.1 Safari/537.36" etag="9Y6430kofz205VOTQdcR" compressed="false" version="14.1.8" type="device">
  <diagram id="P4kVCHzqRwD1z_Bcywp3" name="Seite-1">
    <mxGraphModel dx="769" dy="484" grid="1" gridSize="10" guides="1" tooltips="1" connect="1" arrows="1" fold="1" page="1" pageScale="1" pageWidth="827" pageHeight="1169" background="#000000" math="0" shadow="0">
      <root>
        <mxCell id="0" />
        <mxCell id="1" parent="0" />
        <mxCell id="m6uI_Y7kgYLmJR3tarI--2" value="Zuschlags- oder Vergabekriterien" style="text;html=1;strokeColor=none;fillColor=none;align=center;verticalAlign=middle;whiteSpace=wrap;rounded=0;fontStyle=1;labelBackgroundColor=none;fontColor=#FFFFFF;" vertex="1" parent="1">
          <mxGeometry x="240" y="80" width="160" height="40" as="geometry" />
        </mxCell>
        <mxCell id="m6uI_Y7kgYLmJR3tarI--3" value="Bewertungsmethoden" style="text;html=1;strokeColor=none;fillColor=none;align=center;verticalAlign=middle;whiteSpace=wrap;rounded=0;fontStyle=1;labelBackgroundColor=none;fontColor=#FFFFFF;" vertex="1" parent="1">
          <mxGeometry x="240" y="240" width="160" height="40" as="geometry" />
        </mxCell>
        <mxCell id="m6uI_Y7kgYLmJR3tarI--4" value="&lt;u&gt;wirtschaftlich&lt;/u&gt; günstigstes&lt;br&gt;Angebot" style="rounded=0;whiteSpace=wrap;html=1;fontStyle=2;labelBackgroundColor=none;strokeColor=#FFFFFF;" vertex="1" parent="1">
          <mxGeometry x="240" y="160" width="160" height="40" as="geometry" />
        </mxCell>
        <mxCell id="m6uI_Y7kgYLmJR3tarI--5" value="" style="endArrow=classic;html=1;exitX=0.5;exitY=1;exitDx=0;exitDy=0;entryX=0.5;entryY=0;entryDx=0;entryDy=0;strokeWidth=1;labelBackgroundColor=none;fontColor=#FFFFFF;strokeColor=#FFFFFF;" edge="1" parent="1" source="m6uI_Y7kgYLmJR3tarI--2" target="m6uI_Y7kgYLmJR3tarI--4">
          <mxGeometry width="50" height="50" relative="1" as="geometry">
            <mxPoint x="430" y="130" as="sourcePoint" />
            <mxPoint x="480" y="80" as="targetPoint" />
          </mxGeometry>
        </mxCell>
        <mxCell id="m6uI_Y7kgYLmJR3tarI--6" value="" style="endArrow=classic;html=1;exitX=0.5;exitY=0;exitDx=0;exitDy=0;entryX=0.5;entryY=1;entryDx=0;entryDy=0;strokeWidth=1;labelBackgroundColor=none;fontColor=#FFFFFF;strokeColor=#FFFFFF;" edge="1" parent="1" source="m6uI_Y7kgYLmJR3tarI--3" target="m6uI_Y7kgYLmJR3tarI--4">
          <mxGeometry width="50" height="50" relative="1" as="geometry">
            <mxPoint x="500" y="180" as="sourcePoint" />
            <mxPoint x="550" y="130" as="targetPoint" />
          </mxGeometry>
        </mxCell>
        <mxCell id="m6uI_Y7kgYLmJR3tarI--7" value="Nutzwertanalyse" style="text;html=1;strokeColor=none;fillColor=none;align=center;verticalAlign=middle;whiteSpace=wrap;rounded=0;labelBackgroundColor=none;fontColor=#FFFFFF;" vertex="1" parent="1">
          <mxGeometry x="40" y="280" width="160" height="40" as="geometry" />
        </mxCell>
        <mxCell id="m6uI_Y7kgYLmJR3tarI--8" value="Paarweiser Vergleich" style="text;html=1;strokeColor=none;fillColor=none;align=center;verticalAlign=middle;whiteSpace=wrap;rounded=0;labelBackgroundColor=none;fontColor=#FFFFFF;" vertex="1" parent="1">
          <mxGeometry x="40" y="360" width="160" height="40" as="geometry" />
        </mxCell>
        <mxCell id="m6uI_Y7kgYLmJR3tarI--9" value="Bewertungskriterien" style="text;html=1;strokeColor=none;fillColor=none;align=center;verticalAlign=middle;whiteSpace=wrap;rounded=0;labelBackgroundColor=none;fontColor=#FFFFFF;" vertex="1" parent="1">
          <mxGeometry x="40" y="440" width="160" height="40" as="geometry" />
        </mxCell>
        <mxCell id="m6uI_Y7kgYLmJR3tarI--10" value="&lt;ul&gt;&lt;li&gt;Qualität&lt;/li&gt;&lt;li&gt;Leistung&lt;/li&gt;&lt;li&gt;technischer Wert&lt;/li&gt;&lt;li&gt;Liefer- und Ausführungsfristen&lt;/li&gt;&lt;li&gt;Ästhetik&lt;/li&gt;&lt;li&gt;...&lt;/li&gt;&lt;/ul&gt;" style="text;html=1;strokeColor=none;fillColor=none;align=left;verticalAlign=middle;whiteSpace=wrap;rounded=0;labelBackgroundColor=none;fontColor=#FFFFFF;" vertex="1" parent="1">
          <mxGeometry x="40" y="480" width="160" height="120" as="geometry" />
        </mxCell>
        <mxCell id="m6uI_Y7kgYLmJR3tarI--11" value="" style="endArrow=classic;html=1;strokeWidth=1;exitX=0.5;exitY=0;exitDx=0;exitDy=0;entryX=0.5;entryY=1;entryDx=0;entryDy=0;labelBackgroundColor=none;fontColor=#FFFFFF;strokeColor=#FFFFFF;" edge="1" parent="1" source="m6uI_Y7kgYLmJR3tarI--9" target="m6uI_Y7kgYLmJR3tarI--8">
          <mxGeometry width="50" height="50" relative="1" as="geometry">
            <mxPoint x="170" y="440" as="sourcePoint" />
            <mxPoint x="220" y="390" as="targetPoint" />
          </mxGeometry>
        </mxCell>
        <mxCell id="m6uI_Y7kgYLmJR3tarI--12" value="" style="endArrow=classic;html=1;strokeWidth=1;exitX=0.5;exitY=0;exitDx=0;exitDy=0;entryX=0.5;entryY=1;entryDx=0;entryDy=0;labelBackgroundColor=none;fontColor=#FFFFFF;strokeColor=#FFFFFF;" edge="1" parent="1" source="m6uI_Y7kgYLmJR3tarI--8" target="m6uI_Y7kgYLmJR3tarI--7">
          <mxGeometry width="50" height="50" relative="1" as="geometry">
            <mxPoint x="220" y="360" as="sourcePoint" />
            <mxPoint x="270" y="310" as="targetPoint" />
          </mxGeometry>
        </mxCell>
        <mxCell id="m6uI_Y7kgYLmJR3tarI--13" value="" style="endArrow=classic;html=1;strokeWidth=1;exitX=0.5;exitY=0;exitDx=0;exitDy=0;entryX=0;entryY=0.5;entryDx=0;entryDy=0;labelBackgroundColor=none;fontColor=#FFFFFF;strokeColor=#FFFFFF;" edge="1" parent="1" source="m6uI_Y7kgYLmJR3tarI--7" target="m6uI_Y7kgYLmJR3tarI--3">
          <mxGeometry width="50" height="50" relative="1" as="geometry">
            <mxPoint x="170" y="280" as="sourcePoint" />
            <mxPoint x="220" y="230" as="targetPoint" />
            <Array as="points">
              <mxPoint x="120" y="260" />
            </Array>
          </mxGeometry>
        </mxCell>
        <mxCell id="m6uI_Y7kgYLmJR3tarI--14" value="monetäre Vergleichswerte" style="text;html=1;strokeColor=none;fillColor=none;align=center;verticalAlign=middle;whiteSpace=wrap;rounded=0;labelBackgroundColor=none;fontColor=#FFFFFF;" vertex="1" parent="1">
          <mxGeometry x="440" y="360" width="160" height="40" as="geometry" />
        </mxCell>
        <mxCell id="m6uI_Y7kgYLmJR3tarI--15" value="&lt;ul&gt;&lt;li&gt;Investitions- oder Herstellungskosten&lt;/li&gt;&lt;li&gt;Betriebs- und Folgekosten&lt;/li&gt;&lt;li&gt;Rückflüsse (Einnahmen)&lt;/li&gt;&lt;/ul&gt;" style="text;html=1;strokeColor=none;fillColor=none;align=left;verticalAlign=middle;whiteSpace=wrap;rounded=0;labelBackgroundColor=none;fontColor=#FFFFFF;" vertex="1" parent="1">
          <mxGeometry x="440" y="400" width="160" height="90" as="geometry" />
        </mxCell>
        <mxCell id="m6uI_Y7kgYLmJR3tarI--16" value="Kapitalwertmethode" style="text;html=1;strokeColor=none;fillColor=none;align=center;verticalAlign=middle;whiteSpace=wrap;rounded=0;labelBackgroundColor=none;fontColor=#FFFFFF;" vertex="1" parent="1">
          <mxGeometry x="440" y="280" width="160" height="40" as="geometry" />
        </mxCell>
        <mxCell id="m6uI_Y7kgYLmJR3tarI--17" value="" style="endArrow=classic;html=1;strokeWidth=1;exitX=0.5;exitY=0;exitDx=0;exitDy=0;labelBackgroundColor=none;fontColor=#FFFFFF;strokeColor=#FFFFFF;" edge="1" parent="1" source="m6uI_Y7kgYLmJR3tarI--14" target="m6uI_Y7kgYLmJR3tarI--16">
          <mxGeometry width="50" height="50" relative="1" as="geometry">
            <mxPoint x="390" y="430" as="sourcePoint" />
            <mxPoint x="440" y="380" as="targetPoint" />
          </mxGeometry>
        </mxCell>
        <mxCell id="m6uI_Y7kgYLmJR3tarI--18" value="" style="endArrow=classic;html=1;strokeWidth=1;exitX=0.5;exitY=0;exitDx=0;exitDy=0;entryX=1;entryY=0.5;entryDx=0;entryDy=0;labelBackgroundColor=none;fontColor=#FFFFFF;strokeColor=#FFFFFF;" edge="1" parent="1" source="m6uI_Y7kgYLmJR3tarI--16" target="m6uI_Y7kgYLmJR3tarI--3">
          <mxGeometry width="50" height="50" relative="1" as="geometry">
            <mxPoint x="440" y="280" as="sourcePoint" />
            <mxPoint x="490" y="230" as="targetPoint" />
            <Array as="points">
              <mxPoint x="520" y="260" />
            </Array>
          </mxGeometry>
        </mxCell>
      </root>
    </mxGraphModel>
  </diagram>
</mxfile>
